<?xml version="1.0"?>
<svg xmlns="http://www.w3.org/2000/svg" height="512px" viewBox="0 0 512 512" width="512px" class=""><g><path d="m378.464844 512h-244.929688c-73.632812 0-133.535156-59.910156-133.535156-133.535156v-244.929688c0-73.625 59.902344-133.535156 133.535156-133.535156h244.929688c73.632812 0 133.535156 59.910156 133.535156 133.535156v244.929688c0 73.625-59.902344 133.535156-133.535156 133.535156zm-244.929688-475.429688c-53.464844 0-96.964844 43.5-96.964844 96.964844v244.929688c0 53.464844 43.5 96.964844 96.964844 96.964844h244.929688c53.464844 0 96.964844-43.5 96.964844-96.964844v-244.929688c0-53.464844-43.5-96.964844-96.964844-96.964844zm0 0" data-original="#000000" class="active-path" data-old_color="#000000" fill="#FFFFFF"/><path d="m256 402.285156c-80.660156 0-146.285156-65.625-146.285156-146.285156s65.625-146.285156 146.285156-146.285156 146.285156 65.625 146.285156 146.285156-65.625 146.285156-146.285156 146.285156zm0-256c-60.5 0-109.714844 49.214844-109.714844 109.714844s49.214844 109.714844 109.714844 109.714844 109.714844-49.214844 109.714844-109.714844-49.214844-109.714844-109.714844-109.714844zm0 0" data-original="#000000" class="active-path" data-old_color="#000000" fill="#FFFFFF"/><path d="m420.570312 100.570312c0 15.148438-12.277343 27.429688-27.425781 27.429688-15.148437 0-27.429687-12.28125-27.429687-27.429688 0-15.148437 12.28125-27.425781 27.429687-27.425781 15.148438 0 27.425781 12.277344 27.425781 27.425781zm0 0" data-original="#000000" class="active-path" data-old_color="#000000" fill="#FFFFFF"/></g> </svg>
